<?xml version="1.0" encoding="us-ascii" standalone="no"?><svg xmlns="http://www.w3.org/2000/svg" xmlns:xlink="http://www.w3.org/1999/xlink" contentStyleType="text/css" height="1158px" preserveAspectRatio="none" style="width:2283px;height:1158px;background:#FFFFFF;" version="1.1" viewBox="0 0 2283 1158" width="2283px" zoomAndPan="magnify"><defs/><g><!--class EvcPath--><g id="elem_EvcPath"><rect codeLine="4" fill="#F1F1F1" height="312.1406" id="EvcPath" rx="2.5" ry="2.5" style="stroke:#181818;stroke-width:0.5;" width="457" x="1387" y="115"/><ellipse cx="1585.25" cy="131" fill="#ADD1B2" rx="11" ry="11" style="stroke:#181818;stroke-width:1.0;"/><path d="M1588.0156,126.875 Q1588.1719,126.6563 1588.3594,126.5469 Q1588.5469,126.4375 1588.7656,126.4375 Q1589.1406,126.4375 1589.375,126.7031 Q1589.6094,126.9531 1589.6094,127.5625 L1589.6094,129.0156 Q1589.6094,129.625 1589.375,129.8906 Q1589.1406,130.1563 1588.7656,130.1563 Q1588.4219,130.1563 1588.2188,129.9531 Q1588.0156,129.7656 1587.9063,129.25 Q1587.8594,128.8906 1587.6719,128.7031 Q1587.3438,128.3281 1586.7344,128.1094 Q1586.125,127.8906 1585.5,127.8906 Q1584.7344,127.8906 1584.0938,128.2188 Q1583.4688,128.5469 1582.9688,129.2969 Q1582.4844,130.0469 1582.4844,131.0781 L1582.4844,132.1719 Q1582.4844,133.4063 1583.375,134.2344 Q1584.2656,135.0469 1585.8594,135.0469 Q1586.7969,135.0469 1587.4531,134.7969 Q1587.8438,134.6406 1588.2656,134.2031 Q1588.5313,133.9375 1588.6719,133.8594 Q1588.8281,133.7813 1589.0313,133.7813 Q1589.3594,133.7813 1589.6094,134.0469 Q1589.875,134.2969 1589.875,134.6406 Q1589.875,134.9844 1589.5313,135.3906 Q1589.0313,135.9688 1588.2344,136.2969 Q1587.1563,136.75 1585.8594,136.75 Q1584.3438,136.75 1583.1406,136.125 Q1582.1563,135.625 1581.4688,134.5625 Q1580.7813,133.4844 1580.7813,132.2031 L1580.7813,131.0469 Q1580.7813,129.7188 1581.3906,128.5781 Q1582.0156,127.4219 1583.1094,126.8125 Q1584.2031,126.1875 1585.4375,126.1875 Q1586.1719,126.1875 1586.8125,126.3594 Q1587.4688,126.5156 1588.0156,126.875 Z " fill="#000000"/><text fill="#000000" font-family="sans-serif" font-size="14" lengthAdjust="spacing" textLength="52" x="1605.75" y="136.7285">EvcPath</text><line style="stroke:#181818;stroke-width:0.5;" x1="1388" x2="1843" y1="147" y2="147"/><rect fill="none" height="6" style="stroke:#C82930;stroke-width:1.0;" width="6" x="1395" y="158.3047"/><text fill="#000000" font-family="sans-serif" font-size="14" lengthAdjust="spacing" textLength="102" x="1407" y="165.5332">paths: List&lt;NNI&gt;</text><line style="stroke:#181818;stroke-width:0.5;" x1="1388" x2="1843" y1="172.6094" y2="172.6094"/><ellipse cx="1398" cy="186.9141" fill="#84BE84" rx="3" ry="3" style="stroke:#038048;stroke-width:1.0;"/><text fill="#000000" font-family="sans-serif" font-size="14" lengthAdjust="spacing" textLength="203" x="1407" y="191.1426">__init__(paths: List&lt;NNI&gt;): None</text><ellipse cx="1398" cy="204.5234" fill="#84BE84" rx="3" ry="3" style="stroke:#038048;stroke-width:1.0;"/><text fill="#000000" font-family="sans-serif" font-size="14" lengthAdjust="spacing" textLength="91" x="1407" y="208.752">__iter__(): NNI</text><text fill="#000000" font-family="sans-serif" font-size="14" lengthAdjust="spacing" textLength="4" x="1407" y="226.3613">&#160;</text><ellipse cx="1398" cy="239.7422" fill="#84BE84" rx="3" ry="3" style="stroke:#038048;stroke-width:1.0;"/><text fill="#000000" font-family="sans-serif" font-size="14" lengthAdjust="spacing" textLength="112" x="1407" y="243.9707">paths(): List&lt;NNI&gt;</text><ellipse cx="1398" cy="257.3516" fill="#84BE84" rx="3" ry="3" style="stroke:#038048;stroke-width:1.0;"/><text fill="#000000" font-family="sans-serif" font-size="14" lengthAdjust="spacing" textLength="188" x="1407" y="261.5801">paths(paths: List&lt;NNI&gt;): None</text><text fill="#000000" font-family="sans-serif" font-size="14" lengthAdjust="spacing" textLength="4" x="1407" y="279.1895">&#160;</text><ellipse cx="1398" cy="292.5703" fill="#84BE84" rx="3" ry="3" style="stroke:#038048;stroke-width:1.0;"/><text fill="#000000" font-family="sans-serif" font-size="14" lengthAdjust="spacing" textLength="245" x="1407" y="296.7988">test_paths(paths: List&lt;NNI&gt;): List&lt;NNI&gt;</text><ellipse cx="1398" cy="310.1797" fill="#84BE84" rx="3" ry="3" style="stroke:#038048;stroke-width:1.0;"/><text fill="#000000" font-family="sans-serif" font-size="14" lengthAdjust="spacing" textLength="382" x="1407" y="314.4082">convert_to_nnis(paths: List&lt;Dict&lt;String, object&gt;&gt;): List&lt;NNI&gt;</text><ellipse cx="1398" cy="327.7891" fill="#84BE84" rx="3" ry="3" style="stroke:#038048;stroke-width:1.0;"/><text fill="#000000" font-family="sans-serif" font-size="14" lengthAdjust="spacing" textLength="122" x="1407" y="332.0176">has_backup(): bool</text><ellipse cx="1398" cy="345.3984" fill="#84BE84" rx="3" ry="3" style="stroke:#038048;stroke-width:1.0;"/><text fill="#000000" font-family="sans-serif" font-size="14" lengthAdjust="spacing" textLength="392" x="1407" y="349.627">get_path(path_type: int, full_format: bool): String | List&lt;String&gt;</text><ellipse cx="1398" cy="363.0078" fill="#84BE84" rx="3" ry="3" style="stroke:#038048;stroke-width:1.0;"/><text fill="#000000" font-family="sans-serif" font-size="14" lengthAdjust="spacing" textLength="431" x="1407" y="367.2363">get_primary_path(full_format: bool, primary: int): String | List&lt;String&gt;</text><ellipse cx="1398" cy="380.6172" fill="#84BE84" rx="3" ry="3" style="stroke:#038048;stroke-width:1.0;"/><text fill="#000000" font-family="sans-serif" font-size="14" lengthAdjust="spacing" textLength="429" x="1407" y="384.8457">get_backup_path(full_format: bool, backup: int): String | List&lt;String&gt;</text><text fill="#000000" font-family="sans-serif" font-size="14" lengthAdjust="spacing" textLength="4" x="1407" y="402.4551">&#160;</text><ellipse cx="1398" cy="415.8359" fill="#84BE84" rx="3" ry="3" style="stroke:#038048;stroke-width:1.0;"/><text fill="#000000" font-family="sans-serif" font-size="14" lengthAdjust="spacing" textLength="283" x="1407" y="420.0645">convert_to_nni(nni: Dict&lt;String, object&gt;): NNI</text></g><g id="elem_GMN3"><path d="M1426.5,18 L1426.5,44.3516 A0,0 0 0 0 1426.5,44.3516 L1611.5,44.3516 L1615.5,114.82 L1619.5,44.3516 L1804.5,44.3516 A0,0 0 0 0 1804.5,44.3516 L1804.5,28 L1794.5,18 L1426.5,18 A0,0 0 0 0 1426.5,18 " fill="#FEFFDD" style="stroke:#181818;stroke-width:0.5;"/><path d="M1794.5,18 L1794.5,28 L1804.5,28 L1794.5,18 " fill="#FEFFDD" style="stroke:#181818;stroke-width:0.5;"/><text fill="#000000" font-family="sans-serif" font-size="13" lengthAdjust="spacing" textLength="357" x="1432.5" y="36.4951">Manages the logic for converting, retreiving, and testing paths.</text></g><path d="M853.5,234.5 L853.5,260.8516 A0,0 0 0 0 853.5,260.8516 L1236.5,260.8516 A0,0 0 0 0 1236.5,260.8516 L1236.5,252.5 L1391,291.0703 L1236.5,244.5 L1236.5,244.5 L1226.5,234.5 L853.5,234.5 A0,0 0 0 0 853.5,234.5 " fill="#FEFFDD" style="stroke:#181818;stroke-width:0.5;"/><path d="M1226.5,234.5 L1226.5,244.5 L1236.5,244.5 L1226.5,234.5 " fill="#FEFFDD" style="stroke:#181818;stroke-width:0.5;"/><text fill="#000000" font-family="sans-serif" font-size="13" lengthAdjust="spacing" textLength="362" x="859.5" y="252.9951">Tests the validity of the path. Converts to NNI if a path is a Dict</text><path d="M853.5,270.8516 L853.5,297.2031 A0,0 0 0 0 853.5,297.2031 L1351.5,297.2031 A0,0 0 0 0 1351.5,297.2031 L1351.5,288.8516 L1391,343.8984 L1351.5,280.8516 L1351.5,280.8516 L1341.5,270.8516 L853.5,270.8516 A0,0 0 0 0 853.5,270.8516 " fill="#FEFFDD" style="stroke:#181818;stroke-width:0.5;"/><path d="M1341.5,270.8516 L1341.5,280.8516 L1351.5,280.8516 L1341.5,270.8516 " fill="#FEFFDD" style="stroke:#181818;stroke-width:0.5;"/><text fill="#000000" font-family="sans-serif" font-size="13" lengthAdjust="spacing" textLength="477" x="859.5" y="289.3467">Returns "Unset" if the requested path is unavailable, or a List of Strings if available.</text><!--class UNIS--><g id="elem_UNIS"><rect codeLine="42" fill="#F1F1F1" height="171.2656" id="UNIS" rx="2.5" ry="2.5" style="stroke:#181818;stroke-width:0.5;" width="329" x="7" y="185.5"/><ellipse cx="152.25" cy="201.5" fill="#ADD1B2" rx="11" ry="11" style="stroke:#181818;stroke-width:1.0;"/><path d="M155.0156,197.375 Q155.1719,197.1563 155.3594,197.0469 Q155.5469,196.9375 155.7656,196.9375 Q156.1406,196.9375 156.375,197.2031 Q156.6094,197.4531 156.6094,198.0625 L156.6094,199.5156 Q156.6094,200.125 156.375,200.3906 Q156.1406,200.6563 155.7656,200.6563 Q155.4219,200.6563 155.2188,200.4531 Q155.0156,200.2656 154.9063,199.75 Q154.8594,199.3906 154.6719,199.2031 Q154.3438,198.8281 153.7344,198.6094 Q153.125,198.3906 152.5,198.3906 Q151.7344,198.3906 151.0938,198.7188 Q150.4688,199.0469 149.9688,199.7969 Q149.4844,200.5469 149.4844,201.5781 L149.4844,202.6719 Q149.4844,203.9063 150.375,204.7344 Q151.2656,205.5469 152.8594,205.5469 Q153.7969,205.5469 154.4531,205.2969 Q154.8438,205.1406 155.2656,204.7031 Q155.5313,204.4375 155.6719,204.3594 Q155.8281,204.2813 156.0313,204.2813 Q156.3594,204.2813 156.6094,204.5469 Q156.875,204.7969 156.875,205.1406 Q156.875,205.4844 156.5313,205.8906 Q156.0313,206.4688 155.2344,206.7969 Q154.1563,207.25 152.8594,207.25 Q151.3438,207.25 150.1406,206.625 Q149.1563,206.125 148.4688,205.0625 Q147.7813,203.9844 147.7813,202.7031 L147.7813,201.5469 Q147.7813,200.2188 148.3906,199.0781 Q149.0156,197.9219 150.1094,197.3125 Q151.2031,196.6875 152.4375,196.6875 Q153.1719,196.6875 153.8125,196.8594 Q154.4688,197.0156 155.0156,197.375 Z " fill="#000000"/><text fill="#000000" font-family="sans-serif" font-size="14" lengthAdjust="spacing" textLength="30" x="172.75" y="207.2285">UNIS</text><line style="stroke:#181818;stroke-width:0.5;" x1="8" x2="335" y1="217.5" y2="217.5"/><rect fill="none" height="6" style="stroke:#C82930;stroke-width:1.0;" width="6" x="15" y="228.8047"/><text fill="#000000" font-family="sans-serif" font-size="14" lengthAdjust="spacing" textLength="93" x="27" y="236.0332">unis: List&lt;UNI&gt;</text><line style="stroke:#181818;stroke-width:0.5;" x1="8" x2="335" y1="243.1094" y2="243.1094"/><ellipse cx="18" cy="257.4141" fill="#84BE84" rx="3" ry="3" style="stroke:#038048;stroke-width:1.0;"/><text fill="#000000" font-family="sans-serif" font-size="14" lengthAdjust="spacing" textLength="101" x="27" y="261.6426">__init__(): None</text><text fill="#000000" font-family="sans-serif" font-size="14" lengthAdjust="spacing" textLength="4" x="27" y="279.252">&#160;</text><ellipse cx="18" cy="292.6328" fill="#84BE84" rx="3" ry="3" style="stroke:#038048;stroke-width:1.0;"/><text fill="#000000" font-family="sans-serif" font-size="14" lengthAdjust="spacing" textLength="103" x="27" y="296.8613">unis(): List&lt;UNI&gt;</text><ellipse cx="18" cy="310.2422" fill="#84BE84" rx="3" ry="3" style="stroke:#038048;stroke-width:1.0;"/><text fill="#000000" font-family="sans-serif" font-size="14" lengthAdjust="spacing" textLength="170" x="27" y="314.4707">unis(unis: List&lt;UNI&gt;): None</text><text fill="#000000" font-family="sans-serif" font-size="14" lengthAdjust="spacing" textLength="4" x="27" y="332.0801">&#160;</text><ellipse cx="18" cy="345.4609" fill="#84BE84" rx="3" ry="3" style="stroke:#038048;stroke-width:1.0;"/><text fill="#000000" font-family="sans-serif" font-size="14" lengthAdjust="spacing" textLength="303" x="27" y="349.6895">import_unis(unis: List[Dict[String, object]]): None</text></g><path d="M371,253 L371,262.1758 L330,343.9609 L371,270.1758 L371,279.3516 A0,0 0 0 0 371,279.3516 L818,279.3516 A0,0 0 0 0 818,279.3516 L818,263 L808,253 L371,253 A0,0 0 0 0 371,253 " fill="#FEFFDD" style="stroke:#181818;stroke-width:0.5;"/><path d="M808,253 L808,263 L818,263 L808,253 " fill="#FEFFDD" style="stroke:#181818;stroke-width:0.5;"/><text fill="#000000" font-family="sans-serif" font-size="13" lengthAdjust="spacing" textLength="422" x="377" y="271.4951">Converts a list of dictionaries into a list of UNI objects, then updates itself</text><g id="elem_GMN11"><path d="M70.5,18 L70.5,44.3516 A0,0 0 0 0 70.5,44.3516 L167.5,44.3516 L171.5,185.49 L175.5,44.3516 L272.5,44.3516 A0,0 0 0 0 272.5,44.3516 L272.5,28 L262.5,18 L70.5,18 A0,0 0 0 0 70.5,18 " fill="#FEFFDD" style="stroke:#181818;stroke-width:0.5;"/><path d="M262.5,18 L262.5,28 L272.5,28 L262.5,18 " fill="#FEFFDD" style="stroke:#181818;stroke-width:0.5;"/><text fill="#000000" font-family="sans-serif" font-size="13" lengthAdjust="spacing" textLength="181" x="76.5" y="36.4951">Manages the list of UNI objects</text></g><!--class EthernetVirtualCircuit--><g id="elem_EthernetVirtualCircuit"><rect codeLine="66" fill="#F1F1F1" height="664.3281" id="EthernetVirtualCircuit" rx="2.5" ry="2.5" style="stroke:#181818;stroke-width:0.5;" width="336" x="725.5" y="487"/><ellipse cx="822.25" cy="503" fill="#ADD1B2" rx="11" ry="11" style="stroke:#181818;stroke-width:1.0;"/><path d="M825.0156,498.875 Q825.1719,498.6563 825.3594,498.5469 Q825.5469,498.4375 825.7656,498.4375 Q826.1406,498.4375 826.375,498.7031 Q826.6094,498.9531 826.6094,499.5625 L826.6094,501.0156 Q826.6094,501.625 826.375,501.8906 Q826.1406,502.1563 825.7656,502.1563 Q825.4219,502.1563 825.2188,501.9531 Q825.0156,501.7656 824.9063,501.25 Q824.8594,500.8906 824.6719,500.7031 Q824.3438,500.3281 823.7344,500.1094 Q823.125,499.8906 822.5,499.8906 Q821.7344,499.8906 821.0938,500.2188 Q820.4688,500.5469 819.9688,501.2969 Q819.4844,502.0469 819.4844,503.0781 L819.4844,504.1719 Q819.4844,505.4063 820.375,506.2344 Q821.2656,507.0469 822.8594,507.0469 Q823.7969,507.0469 824.4531,506.7969 Q824.8438,506.6406 825.2656,506.2031 Q825.5313,505.9375 825.6719,505.8594 Q825.8281,505.7813 826.0313,505.7813 Q826.3594,505.7813 826.6094,506.0469 Q826.875,506.2969 826.875,506.6406 Q826.875,506.9844 826.5313,507.3906 Q826.0313,507.9688 825.2344,508.2969 Q824.1563,508.75 822.8594,508.75 Q821.3438,508.75 820.1406,508.125 Q819.1563,507.625 818.4688,506.5625 Q817.7813,505.4844 817.7813,504.2031 L817.7813,503.0469 Q817.7813,501.7188 818.3906,500.5781 Q819.0156,499.4219 820.1094,498.8125 Q821.2031,498.1875 822.4375,498.1875 Q823.1719,498.1875 823.8125,498.3594 Q824.4688,498.5156 825.0156,498.875 Z " fill="#000000"/><text fill="#000000" font-family="sans-serif" font-size="14" lengthAdjust="spacing" textLength="134" x="842.75" y="508.7285">EthernetVirtualCircuit</text><line style="stroke:#181818;stroke-width:0.5;" x1="726.5" x2="1060.5" y1="519" y2="519"/><rect fill="none" height="6" style="stroke:#C82930;stroke-width:1.0;" width="6" x="733.5" y="530.3047"/><text fill="#000000" font-family="sans-serif" font-size="14" lengthAdjust="spacing" textLength="58" x="745.5" y="537.5332">name: int</text><rect fill="none" height="6" style="stroke:#C82930;stroke-width:1.0;" width="6" x="733.5" y="547.9141"/><text fill="#000000" font-family="sans-serif" font-size="14" lengthAdjust="spacing" textLength="133" x="745.5" y="555.1426">provisioning_time: int</text><rect fill="none" height="6" style="stroke:#C82930;stroke-width:1.0;" width="6" x="733.5" y="565.5234"/><text fill="#000000" font-family="sans-serif" font-size="14" lengthAdjust="spacing" textLength="165" x="745.5" y="572.752">decommissioning_time: int</text><rect fill="none" height="6" style="stroke:#C82930;stroke-width:1.0;" width="6" x="733.5" y="583.1328"/><text fill="#000000" font-family="sans-serif" font-size="14" lengthAdjust="spacing" textLength="63" x="745.5" y="590.3613">tenant: int</text><rect fill="none" height="6" style="stroke:#C82930;stroke-width:1.0;" width="6" x="733.5" y="600.7422"/><text fill="#000000" font-family="sans-serif" font-size="14" lengthAdjust="spacing" textLength="66" x="745.5" y="607.9707">priority: int</text><rect fill="none" height="6" style="stroke:#C82930;stroke-width:1.0;" width="6" x="733.5" y="618.3516"/><text fill="#000000" font-family="sans-serif" font-size="14" lengthAdjust="spacing" textLength="92" x="745.5" y="625.5801">external_id: int</text><rect fill="none" height="6" style="stroke:#C82930;stroke-width:1.0;" width="6" x="733.5" y="635.9609"/><text fill="#000000" font-family="sans-serif" font-size="14" lengthAdjust="spacing" textLength="98" x="745.5" y="643.1895">metrics: Metrics</text><rect fill="none" height="6" style="stroke:#C82930;stroke-width:1.0;" width="6" x="733.5" y="653.5703"/><text fill="#000000" font-family="sans-serif" font-size="14" lengthAdjust="spacing" textLength="188" x="745.5" y="660.7988">current_config: CurrentConfig</text><rect fill="none" height="6" style="stroke:#C82930;stroke-width:1.0;" width="6" x="733.5" y="671.1797"/><text fill="#000000" font-family="sans-serif" font-size="14" lengthAdjust="spacing" textLength="140" x="745.5" y="678.4082">monitoring: Monitoring</text><rect fill="none" height="6" style="stroke:#C82930;stroke-width:1.0;" width="6" x="733.5" y="688.7891"/><text fill="#000000" font-family="sans-serif" font-size="14" lengthAdjust="spacing" textLength="159" x="745.5" y="696.0176">notifications: Notifications</text><line style="stroke:#181818;stroke-width:0.5;" x1="726.5" x2="1060.5" y1="703.0938" y2="703.0938"/><ellipse cx="736.5" cy="717.3984" fill="#84BE84" rx="3" ry="3" style="stroke:#038048;stroke-width:1.0;"/><text fill="#000000" font-family="sans-serif" font-size="14" lengthAdjust="spacing" textLength="101" x="745.5" y="721.627">__init__(): None</text><ellipse cx="736.5" cy="735.0078" fill="#84BE84" rx="3" ry="3" style="stroke:#038048;stroke-width:1.0;"/><text fill="#000000" font-family="sans-serif" font-size="14" lengthAdjust="spacing" textLength="233" x="745.5" y="739.2363">__eq__(other: EthernetVirtualCircuit)</text><text fill="#000000" font-family="sans-serif" font-size="14" lengthAdjust="spacing" textLength="4" x="745.5" y="756.8457">&#160;</text><ellipse cx="736.5" cy="770.2266" fill="#84BE84" rx="3" ry="3" style="stroke:#038048;stroke-width:1.0;"/><text fill="#000000" font-family="sans-serif" font-size="14" lengthAdjust="spacing" textLength="90" x="745.5" y="774.4551">name(): String</text><ellipse cx="736.5" cy="787.8359" fill="#84BE84" rx="3" ry="3" style="stroke:#038048;stroke-width:1.0;"/><text fill="#000000" font-family="sans-serif" font-size="14" lengthAdjust="spacing" textLength="196" x="745.5" y="792.0645">name(evc_name: String): None</text><ellipse cx="736.5" cy="805.4453" fill="#84BE84" rx="3" ry="3" style="stroke:#038048;stroke-width:1.0;"/><text fill="#000000" font-family="sans-serif" font-size="14" lengthAdjust="spacing" textLength="143" x="745.5" y="809.6738">provisioning_time(): int</text><ellipse cx="736.5" cy="823.0547" fill="#84BE84" rx="3" ry="3" style="stroke:#038048;stroke-width:1.0;"/><text fill="#000000" font-family="sans-serif" font-size="14" lengthAdjust="spacing" textLength="210" x="745.5" y="827.2832">provisioning_time(time: int): None</text><ellipse cx="736.5" cy="840.6641" fill="#84BE84" rx="3" ry="3" style="stroke:#038048;stroke-width:1.0;"/><text fill="#000000" font-family="sans-serif" font-size="14" lengthAdjust="spacing" textLength="175" x="745.5" y="844.8926">decommissioning_time(): int</text><ellipse cx="736.5" cy="858.2734" fill="#84BE84" rx="3" ry="3" style="stroke:#038048;stroke-width:1.0;"/><text fill="#000000" font-family="sans-serif" font-size="14" lengthAdjust="spacing" textLength="242" x="745.5" y="862.502">decommissioning_time(time: int): None</text><ellipse cx="736.5" cy="875.8828" fill="#84BE84" rx="3" ry="3" style="stroke:#038048;stroke-width:1.0;"/><text fill="#000000" font-family="sans-serif" font-size="14" lengthAdjust="spacing" textLength="73" x="745.5" y="880.1113">tenant(): int</text><ellipse cx="736.5" cy="893.4922" fill="#84BE84" rx="3" ry="3" style="stroke:#038048;stroke-width:1.0;"/><text fill="#000000" font-family="sans-serif" font-size="14" lengthAdjust="spacing" textLength="154" x="745.5" y="897.7207">tenant(tenant: int): None</text><ellipse cx="736.5" cy="911.1016" fill="#84BE84" rx="3" ry="3" style="stroke:#038048;stroke-width:1.0;"/><text fill="#000000" font-family="sans-serif" font-size="14" lengthAdjust="spacing" textLength="76" x="745.5" y="915.3301">priority(): int</text><ellipse cx="736.5" cy="928.7109" fill="#84BE84" rx="3" ry="3" style="stroke:#038048;stroke-width:1.0;"/><text fill="#000000" font-family="sans-serif" font-size="14" lengthAdjust="spacing" textLength="160" x="745.5" y="932.9395">priority(priority: int): None</text><ellipse cx="736.5" cy="946.3203" fill="#84BE84" rx="3" ry="3" style="stroke:#038048;stroke-width:1.0;"/><text fill="#000000" font-family="sans-serif" font-size="14" lengthAdjust="spacing" textLength="102" x="745.5" y="950.5488">external_id(): int</text><ellipse cx="736.5" cy="963.9297" fill="#84BE84" rx="3" ry="3" style="stroke:#038048;stroke-width:1.0;"/><text fill="#000000" font-family="sans-serif" font-size="14" lengthAdjust="spacing" textLength="212" x="745.5" y="968.1582">external_id(external_id: int): None</text><ellipse cx="736.5" cy="981.5391" fill="#84BE84" rx="3" ry="3" style="stroke:#038048;stroke-width:1.0;"/><text fill="#000000" font-family="sans-serif" font-size="14" lengthAdjust="spacing" textLength="198" x="745.5" y="985.7676">current_config(): CurrentConfig</text><ellipse cx="736.5" cy="999.1484" fill="#84BE84" rx="3" ry="3" style="stroke:#038048;stroke-width:1.0;"/><text fill="#000000" font-family="sans-serif" font-size="14" lengthAdjust="spacing" textLength="310" x="745.5" y="1003.377">current_config(curr_config: CurrentConfig): None</text><ellipse cx="736.5" cy="1016.7578" fill="#84BE84" rx="3" ry="3" style="stroke:#038048;stroke-width:1.0;"/><text fill="#000000" font-family="sans-serif" font-size="14" lengthAdjust="spacing" textLength="108" x="745.5" y="1020.9863">metrics(): Metrics</text><ellipse cx="736.5" cy="1034.3672" fill="#84BE84" rx="3" ry="3" style="stroke:#038048;stroke-width:1.0;"/><text fill="#000000" font-family="sans-serif" font-size="14" lengthAdjust="spacing" textLength="194" x="745.5" y="1038.5957">metrics(metrics: Metrics): None</text><ellipse cx="736.5" cy="1051.9766" fill="#84BE84" rx="3" ry="3" style="stroke:#038048;stroke-width:1.0;"/><text fill="#000000" font-family="sans-serif" font-size="14" lengthAdjust="spacing" textLength="150" x="745.5" y="1056.2051">monitoring(): Monitoring</text><ellipse cx="736.5" cy="1069.5859" fill="#84BE84" rx="3" ry="3" style="stroke:#038048;stroke-width:1.0;"/><text fill="#000000" font-family="sans-serif" font-size="14" lengthAdjust="spacing" textLength="257" x="745.5" y="1073.8145">monitoring(monitoring: Monitoring): None</text><ellipse cx="736.5" cy="1087.1953" fill="#84BE84" rx="3" ry="3" style="stroke:#038048;stroke-width:1.0;"/><text fill="#000000" font-family="sans-serif" font-size="14" lengthAdjust="spacing" textLength="169" x="745.5" y="1091.4238">notifications(): Notifications</text><ellipse cx="736.5" cy="1104.8047" fill="#84BE84" rx="3" ry="3" style="stroke:#038048;stroke-width:1.0;"/><text fill="#000000" font-family="sans-serif" font-size="14" lengthAdjust="spacing" textLength="285" x="745.5" y="1109.0332">notifications(notifications: Notifications): None</text><text fill="#000000" font-family="sans-serif" font-size="14" lengthAdjust="spacing" textLength="4" x="745.5" y="1126.6426">&#160;</text><ellipse cx="736.5" cy="1140.0234" fill="#84BE84" rx="3" ry="3" style="stroke:#038048;stroke-width:1.0;"/><text fill="#000000" font-family="sans-serif" font-size="14" lengthAdjust="spacing" textLength="187" x="745.5" y="1144.252">is_using_backup_path(): bool</text></g><g id="elem_GMN15"><path d="M1097,806 L1097,815 L1061.92,819 L1097,823 L1097,832.3516 A0,0 0 0 0 1097,832.3516 L1548,832.3516 A0,0 0 0 0 1548,832.3516 L1548,816 L1538,806 L1097,806 A0,0 0 0 0 1097,806 " fill="#FEFFDD" style="stroke:#181818;stroke-width:0.5;"/><path d="M1538,806 L1538,816 L1548,816 L1538,806 " fill="#FEFFDD" style="stroke:#181818;stroke-width:0.5;"/><text fill="#000000" font-family="sans-serif" font-size="13" lengthAdjust="spacing" textLength="430" x="1103" y="824.4951">Represents an EVC. Handles all internal details, specific to an EVC object</text></g><!--class NNI--><g id="elem_NNI"><rect codeLine="114" fill="#F1F1F1" height="48" id="NNI" rx="2.5" ry="2.5" style="stroke:#181818;stroke-width:0.5;" width="53" x="1913" y="7"/><ellipse cx="1928" cy="23" fill="#ADD1B2" rx="11" ry="11" style="stroke:#181818;stroke-width:1.0;"/><path d="M1930.7656,18.875 Q1930.9219,18.6563 1931.1094,18.5469 Q1931.2969,18.4375 1931.5156,18.4375 Q1931.8906,18.4375 1932.125,18.7031 Q1932.3594,18.9531 1932.3594,19.5625 L1932.3594,21.0156 Q1932.3594,21.625 1932.125,21.8906 Q1931.8906,22.1563 1931.5156,22.1563 Q1931.1719,22.1563 1930.9688,21.9531 Q1930.7656,21.7656 1930.6563,21.25 Q1930.6094,20.8906 1930.4219,20.7031 Q1930.0938,20.3281 1929.4844,20.1094 Q1928.875,19.8906 1928.25,19.8906 Q1927.4844,19.8906 1926.8438,20.2188 Q1926.2188,20.5469 1925.7188,21.2969 Q1925.2344,22.0469 1925.2344,23.0781 L1925.2344,24.1719 Q1925.2344,25.4063 1926.125,26.2344 Q1927.0156,27.0469 1928.6094,27.0469 Q1929.5469,27.0469 1930.2031,26.7969 Q1930.5938,26.6406 1931.0156,26.2031 Q1931.2813,25.9375 1931.4219,25.8594 Q1931.5781,25.7813 1931.7813,25.7813 Q1932.1094,25.7813 1932.3594,26.0469 Q1932.625,26.2969 1932.625,26.6406 Q1932.625,26.9844 1932.2813,27.3906 Q1931.7813,27.9688 1930.9844,28.2969 Q1929.9063,28.75 1928.6094,28.75 Q1927.0938,28.75 1925.8906,28.125 Q1924.9063,27.625 1924.2188,26.5625 Q1923.5313,25.4844 1923.5313,24.2031 L1923.5313,23.0469 Q1923.5313,21.7188 1924.1406,20.5781 Q1924.7656,19.4219 1925.8594,18.8125 Q1926.9531,18.1875 1928.1875,18.1875 Q1928.9219,18.1875 1929.5625,18.3594 Q1930.2188,18.5156 1930.7656,18.875 Z " fill="#000000"/><text fill="#000000" font-family="sans-serif" font-size="14" lengthAdjust="spacing" textLength="21" x="1942" y="28.7285">NNI</text><line style="stroke:#181818;stroke-width:0.5;" x1="1914" x2="1965" y1="39" y2="39"/><line style="stroke:#181818;stroke-width:0.5;" x1="1914" x2="1965" y1="47" y2="47"/></g><!--class UNI--><g id="elem_UNI"><rect codeLine="118" fill="#F1F1F1" height="48" id="UNI" rx="2.5" ry="2.5" style="stroke:#181818;stroke-width:0.5;" width="53" x="2001" y="7"/><ellipse cx="2016" cy="23" fill="#ADD1B2" rx="11" ry="11" style="stroke:#181818;stroke-width:1.0;"/><path d="M2018.7656,18.875 Q2018.9219,18.6563 2019.1094,18.5469 Q2019.2969,18.4375 2019.5156,18.4375 Q2019.8906,18.4375 2020.125,18.7031 Q2020.3594,18.9531 2020.3594,19.5625 L2020.3594,21.0156 Q2020.3594,21.625 2020.125,21.8906 Q2019.8906,22.1563 2019.5156,22.1563 Q2019.1719,22.1563 2018.9688,21.9531 Q2018.7656,21.7656 2018.6563,21.25 Q2018.6094,20.8906 2018.4219,20.7031 Q2018.0938,20.3281 2017.4844,20.1094 Q2016.875,19.8906 2016.25,19.8906 Q2015.4844,19.8906 2014.8438,20.2188 Q2014.2188,20.5469 2013.7188,21.2969 Q2013.2344,22.0469 2013.2344,23.0781 L2013.2344,24.1719 Q2013.2344,25.4063 2014.125,26.2344 Q2015.0156,27.0469 2016.6094,27.0469 Q2017.5469,27.0469 2018.2031,26.7969 Q2018.5938,26.6406 2019.0156,26.2031 Q2019.2813,25.9375 2019.4219,25.8594 Q2019.5781,25.7813 2019.7813,25.7813 Q2020.1094,25.7813 2020.3594,26.0469 Q2020.625,26.2969 2020.625,26.6406 Q2020.625,26.9844 2020.2813,27.3906 Q2019.7813,27.9688 2018.9844,28.2969 Q2017.9063,28.75 2016.6094,28.75 Q2015.0938,28.75 2013.8906,28.125 Q2012.9063,27.625 2012.2188,26.5625 Q2011.5313,25.4844 2011.5313,24.2031 L2011.5313,23.0469 Q2011.5313,21.7188 2012.1406,20.5781 Q2012.7656,19.4219 2013.8594,18.8125 Q2014.9531,18.1875 2016.1875,18.1875 Q2016.9219,18.1875 2017.5625,18.3594 Q2018.2188,18.5156 2018.7656,18.875 Z " fill="#000000"/><text fill="#000000" font-family="sans-serif" font-size="14" lengthAdjust="spacing" textLength="21" x="2030" y="28.7285">UNI</text><line style="stroke:#181818;stroke-width:0.5;" x1="2002" x2="2053" y1="39" y2="39"/><line style="stroke:#181818;stroke-width:0.5;" x1="2002" x2="2053" y1="47" y2="47"/></g><!--class Metrics--><g id="elem_Metrics"><rect codeLine="122" fill="#F1F1F1" height="48" id="Metrics" rx="2.5" ry="2.5" style="stroke:#181818;stroke-width:0.5;" width="77" x="2089" y="7"/><ellipse cx="2104" cy="23" fill="#ADD1B2" rx="11" ry="11" style="stroke:#181818;stroke-width:1.0;"/><path d="M2106.7656,18.875 Q2106.9219,18.6563 2107.1094,18.5469 Q2107.2969,18.4375 2107.5156,18.4375 Q2107.8906,18.4375 2108.125,18.7031 Q2108.3594,18.9531 2108.3594,19.5625 L2108.3594,21.0156 Q2108.3594,21.625 2108.125,21.8906 Q2107.8906,22.1563 2107.5156,22.1563 Q2107.1719,22.1563 2106.9688,21.9531 Q2106.7656,21.7656 2106.6563,21.25 Q2106.6094,20.8906 2106.4219,20.7031 Q2106.0938,20.3281 2105.4844,20.1094 Q2104.875,19.8906 2104.25,19.8906 Q2103.4844,19.8906 2102.8438,20.2188 Q2102.2188,20.5469 2101.7188,21.2969 Q2101.2344,22.0469 2101.2344,23.0781 L2101.2344,24.1719 Q2101.2344,25.4063 2102.125,26.2344 Q2103.0156,27.0469 2104.6094,27.0469 Q2105.5469,27.0469 2106.2031,26.7969 Q2106.5938,26.6406 2107.0156,26.2031 Q2107.2813,25.9375 2107.4219,25.8594 Q2107.5781,25.7813 2107.7813,25.7813 Q2108.1094,25.7813 2108.3594,26.0469 Q2108.625,26.2969 2108.625,26.6406 Q2108.625,26.9844 2108.2813,27.3906 Q2107.7813,27.9688 2106.9844,28.2969 Q2105.9063,28.75 2104.6094,28.75 Q2103.0938,28.75 2101.8906,28.125 Q2100.9063,27.625 2100.2188,26.5625 Q2099.5313,25.4844 2099.5313,24.2031 L2099.5313,23.0469 Q2099.5313,21.7188 2100.1406,20.5781 Q2100.7656,19.4219 2101.8594,18.8125 Q2102.9531,18.1875 2104.1875,18.1875 Q2104.9219,18.1875 2105.5625,18.3594 Q2106.2188,18.5156 2106.7656,18.875 Z " fill="#000000"/><text fill="#000000" font-family="sans-serif" font-size="14" lengthAdjust="spacing" textLength="45" x="2118" y="28.7285">Metrics</text><line style="stroke:#181818;stroke-width:0.5;" x1="2090" x2="2165" y1="39" y2="39"/><line style="stroke:#181818;stroke-width:0.5;" x1="2090" x2="2165" y1="47" y2="47"/></g><!--class CurrentConfig--><g id="elem_CurrentConfig"><rect codeLine="126" fill="#F1F1F1" height="48" id="CurrentConfig" rx="2.5" ry="2.5" style="stroke:#181818;stroke-width:0.5;" width="121" x="1879" y="247"/><ellipse cx="1894" cy="263" fill="#ADD1B2" rx="11" ry="11" style="stroke:#181818;stroke-width:1.0;"/><path d="M1896.7656,258.875 Q1896.9219,258.6563 1897.1094,258.5469 Q1897.2969,258.4375 1897.5156,258.4375 Q1897.8906,258.4375 1898.125,258.7031 Q1898.3594,258.9531 1898.3594,259.5625 L1898.3594,261.0156 Q1898.3594,261.625 1898.125,261.8906 Q1897.8906,262.1563 1897.5156,262.1563 Q1897.1719,262.1563 1896.9688,261.9531 Q1896.7656,261.7656 1896.6563,261.25 Q1896.6094,260.8906 1896.4219,260.7031 Q1896.0938,260.3281 1895.4844,260.1094 Q1894.875,259.8906 1894.25,259.8906 Q1893.4844,259.8906 1892.8438,260.2188 Q1892.2188,260.5469 1891.7188,261.2969 Q1891.2344,262.0469 1891.2344,263.0781 L1891.2344,264.1719 Q1891.2344,265.4063 1892.125,266.2344 Q1893.0156,267.0469 1894.6094,267.0469 Q1895.5469,267.0469 1896.2031,266.7969 Q1896.5938,266.6406 1897.0156,266.2031 Q1897.2813,265.9375 1897.4219,265.8594 Q1897.5781,265.7813 1897.7813,265.7813 Q1898.1094,265.7813 1898.3594,266.0469 Q1898.625,266.2969 1898.625,266.6406 Q1898.625,266.9844 1898.2813,267.3906 Q1897.7813,267.9688 1896.9844,268.2969 Q1895.9063,268.75 1894.6094,268.75 Q1893.0938,268.75 1891.8906,268.125 Q1890.9063,267.625 1890.2188,266.5625 Q1889.5313,265.4844 1889.5313,264.2031 L1889.5313,263.0469 Q1889.5313,261.7188 1890.1406,260.5781 Q1890.7656,259.4219 1891.8594,258.8125 Q1892.9531,258.1875 1894.1875,258.1875 Q1894.9219,258.1875 1895.5625,258.3594 Q1896.2188,258.5156 1896.7656,258.875 Z " fill="#000000"/><text fill="#000000" font-family="sans-serif" font-size="14" lengthAdjust="spacing" textLength="89" x="1908" y="268.7285">CurrentConfig</text><line style="stroke:#181818;stroke-width:0.5;" x1="1880" x2="1999" y1="279" y2="279"/><line style="stroke:#181818;stroke-width:0.5;" x1="1880" x2="1999" y1="287" y2="287"/></g><!--class Monitoring--><g id="elem_Monitoring"><rect codeLine="130" fill="#F1F1F1" height="48" id="Monitoring" rx="2.5" ry="2.5" style="stroke:#181818;stroke-width:0.5;" width="98" x="2035.5" y="247"/><ellipse cx="2050.5" cy="263" fill="#ADD1B2" rx="11" ry="11" style="stroke:#181818;stroke-width:1.0;"/><path d="M2053.2656,258.875 Q2053.4219,258.6563 2053.6094,258.5469 Q2053.7969,258.4375 2054.0156,258.4375 Q2054.3906,258.4375 2054.625,258.7031 Q2054.8594,258.9531 2054.8594,259.5625 L2054.8594,261.0156 Q2054.8594,261.625 2054.625,261.8906 Q2054.3906,262.1563 2054.0156,262.1563 Q2053.6719,262.1563 2053.4688,261.9531 Q2053.2656,261.7656 2053.1563,261.25 Q2053.1094,260.8906 2052.9219,260.7031 Q2052.5938,260.3281 2051.9844,260.1094 Q2051.375,259.8906 2050.75,259.8906 Q2049.9844,259.8906 2049.3438,260.2188 Q2048.7188,260.5469 2048.2188,261.2969 Q2047.7344,262.0469 2047.7344,263.0781 L2047.7344,264.1719 Q2047.7344,265.4063 2048.625,266.2344 Q2049.5156,267.0469 2051.1094,267.0469 Q2052.0469,267.0469 2052.7031,266.7969 Q2053.0938,266.6406 2053.5156,266.2031 Q2053.7813,265.9375 2053.9219,265.8594 Q2054.0781,265.7813 2054.2813,265.7813 Q2054.6094,265.7813 2054.8594,266.0469 Q2055.125,266.2969 2055.125,266.6406 Q2055.125,266.9844 2054.7813,267.3906 Q2054.2813,267.9688 2053.4844,268.2969 Q2052.4063,268.75 2051.1094,268.75 Q2049.5938,268.75 2048.3906,268.125 Q2047.4063,267.625 2046.7188,266.5625 Q2046.0313,265.4844 2046.0313,264.2031 L2046.0313,263.0469 Q2046.0313,261.7188 2046.6406,260.5781 Q2047.2656,259.4219 2048.3594,258.8125 Q2049.4531,258.1875 2050.6875,258.1875 Q2051.4219,258.1875 2052.0625,258.3594 Q2052.7188,258.5156 2053.2656,258.875 Z " fill="#000000"/><text fill="#000000" font-family="sans-serif" font-size="14" lengthAdjust="spacing" textLength="66" x="2064.5" y="268.7285">Monitoring</text><line style="stroke:#181818;stroke-width:0.5;" x1="2036.5" x2="2132.5" y1="279" y2="279"/><line style="stroke:#181818;stroke-width:0.5;" x1="2036.5" x2="2132.5" y1="287" y2="287"/></g><!--class Notifications--><g id="elem_Notifications"><rect codeLine="134" fill="#F1F1F1" height="48" id="Notifications" rx="2.5" ry="2.5" style="stroke:#181818;stroke-width:0.5;" width="108" x="2168.5" y="247"/><ellipse cx="2183.5" cy="263" fill="#ADD1B2" rx="11" ry="11" style="stroke:#181818;stroke-width:1.0;"/><path d="M2186.2656,258.875 Q2186.4219,258.6563 2186.6094,258.5469 Q2186.7969,258.4375 2187.0156,258.4375 Q2187.3906,258.4375 2187.625,258.7031 Q2187.8594,258.9531 2187.8594,259.5625 L2187.8594,261.0156 Q2187.8594,261.625 2187.625,261.8906 Q2187.3906,262.1563 2187.0156,262.1563 Q2186.6719,262.1563 2186.4688,261.9531 Q2186.2656,261.7656 2186.1563,261.25 Q2186.1094,260.8906 2185.9219,260.7031 Q2185.5938,260.3281 2184.9844,260.1094 Q2184.375,259.8906 2183.75,259.8906 Q2182.9844,259.8906 2182.3438,260.2188 Q2181.7188,260.5469 2181.2188,261.2969 Q2180.7344,262.0469 2180.7344,263.0781 L2180.7344,264.1719 Q2180.7344,265.4063 2181.625,266.2344 Q2182.5156,267.0469 2184.1094,267.0469 Q2185.0469,267.0469 2185.7031,266.7969 Q2186.0938,266.6406 2186.5156,266.2031 Q2186.7813,265.9375 2186.9219,265.8594 Q2187.0781,265.7813 2187.2813,265.7813 Q2187.6094,265.7813 2187.8594,266.0469 Q2188.125,266.2969 2188.125,266.6406 Q2188.125,266.9844 2187.7813,267.3906 Q2187.2813,267.9688 2186.4844,268.2969 Q2185.4063,268.75 2184.1094,268.75 Q2182.5938,268.75 2181.3906,268.125 Q2180.4063,267.625 2179.7188,266.5625 Q2179.0313,265.4844 2179.0313,264.2031 L2179.0313,263.0469 Q2179.0313,261.7188 2179.6406,260.5781 Q2180.2656,259.4219 2181.3594,258.8125 Q2182.4531,258.1875 2183.6875,258.1875 Q2184.4219,258.1875 2185.0625,258.3594 Q2185.7188,258.5156 2186.2656,258.875 Z " fill="#000000"/><text fill="#000000" font-family="sans-serif" font-size="14" lengthAdjust="spacing" textLength="76" x="2197.5" y="268.7285">Notifications</text><line style="stroke:#181818;stroke-width:0.5;" x1="2169.5" x2="2275.5" y1="279" y2="279"/><line style="stroke:#181818;stroke-width:0.5;" x1="2169.5" x2="2275.5" y1="287" y2="287"/></g><!--reverse link EvcPath to EthernetVirtualCircuit--><g id="link_EvcPath_EthernetVirtualCircuit"><path codeLine="138" d="M1370.4214,426.5553 C1364.3014,429.2953 1374.61,424.54 1368.5,427 C1246.8,475.97 1185.36,409.53 1079.5,487 C1073.38,491.48 1067.44,496.22 1061.67,501.19 " fill="none" id="EvcPath-backto-EthernetVirtualCircuit" style="stroke:#181818;stroke-width:1.0;"/><polygon fill="none" points="1386.85,419.2,1367.9696,421.0791,1372.8731,432.0315,1386.85,419.2" style="stroke:#181818;stroke-width:1.0;"/></g><!--reverse link UNIS to EthernetVirtualCircuit--><g id="link_UNIS_EthernetVirtualCircuit"><path codeLine="139" d="M281.7803,368.3749 C309.0403,391.6049 325.27,404.82 353.5,427 C475.33,522.75 617.42,625.28 725.26,701.32 " fill="none" id="UNIS-backto-EthernetVirtualCircuit" style="stroke:#181818;stroke-width:1.0;"/><polygon fill="none" points="268.08,356.7,277.8886,372.9416,285.6719,363.8081,268.08,356.7" style="stroke:#181818;stroke-width:1.0;"/></g><!--SRC=[bLPDRnGz3Bxlhx2uj8X-t4TLB_kYbqgmL9HoGMYKdSdk1hB9adXMLC1_nquoqyby5BhIIabiFtRinyvSdi3j0-wiWPFBnQBImdjuVQnk1UxWvs81z3k70-ry0M-LnwlLwkOwdb-UmFkZT4xLqhCrfDyhA4jb59RbwT3mPG4hQsIkYjAHAejMDnto_nBf77x1NLna-06MBHuZ6WhdFBVujyrQgmhsakvU3y97wR6SXPdoMLb3cS0IRMcCoit-KnLUtQ5JPdi6TlrLLdWzXxCJlboBwbjpuDkjhTKzuLR6g09wYGy7MO0oU0QRHkjoOzrUO3GYs-YGyXVSnDtr4CoflN0F4NG4SWP97hpy8sGCVXOnYfy6R2jqXmBdAfJd-vJ-1KpbkINLxyN2M9I0zW1sqn8y0BuJHco9mBYJeEsMF5B8hOE0vIGwgOvXBKmTwC5nXo9VB2GTCNXoeUK6UpwAuf5DmTz7saPlHw5LhV21jNdFEXUmZ9v9nNBie3OWWWYKfnNVygykMwO4XnyaDivuU75llCGN3CZUdFpUK2Yoxi0R8uv2QR7MaXBeo1dNXO5ZLds8fLNfNppDZVlLpTtZq6Ye4HBBxvypCuQT6YU1Xyiq2WPsxAOR1VTvEmNP88xd30ArFrXYsG3cCzVWSywqBrywt9PhJcrt8NkSbgBeOGKFNPq5w9Jccd2LDS8fIWwrYEt922IvycTSFmFDeHR8YkYbti2G58dgx7pCyp5eppmz0gJeZCHFoc4Zz5Avgb7uM5uZzd7-j6-4iqVbANpAIeag5zQoilkzydDob4OOpE6KTTGS_JFvWyflX2vLtJ-cqZbLKN7UnKKwhXhdfC6IMdcZjWKiutuPjgqfXOEM2qdMtRgzeKMrKPNWcdYkRc_xR3RtHV8x2IpdjvX9yyj_PJzNuRGRfKE1F5Pbh5EKZuCPLOt1sjJEgNJL6-DD5NeCEQdr16gannWddVVOCtN3IAIfYoL9nhKnGezsOv2-SCZFCLJEIKORit9IaxVJJ1uxIVt0wFsEo8N3ffc0wVeX8ENTCLAPxgGnQjPKiJlwRJMd-5GlFckY-xBnJBd-XqhxgJKUtTFTcPxLWvEUoa0JtC3hJyiBU4DV1vecWT2Qon-uG5n7UZ5fQFk3h3XeVjYZHPgzez7Bp_xF44tthcRxLBBiBED4hjrL8plEKfWaxOV_rQ_pyxcxXqV-AOK_]--></g></svg>